<?xml version="1.0" standalone="no"?>
<!DOCTYPE svg PUBLIC "-//W3C//DTD SVG 20010904//EN"
 "http://www.w3.org/TR/2001/REC-SVG-20010904/DTD/svg10.dtd">
<svg version="1.0" xmlns="http://www.w3.org/2000/svg"
 width="1491.000000pt" height="1491.000000pt" viewBox="0 0 1491.000000 1491.000000"
 preserveAspectRatio="xMidYMid meet">
<metadata>
Created by potrace 1.11, written by Peter Selinger 2001-2013
</metadata>
<g transform="translate(0.000000,1491.000000) scale(0.100000,-0.100000)"
fill="#000000" stroke="none">
<path d="M7240 14679 c-124 -127 -229 -237 -235 -243 -5 -6 -32 -36 -60 -67
-95 -104 -121 -134 -226 -259 -271 -323 -578 -754 -746 -1050 -11 -19 -44 -75
-73 -125 -58 -100 -239 -451 -287 -560 -18 -38 -48 -105 -67 -148 -20 -43 -36
-81 -36 -83 0 -3 -8 -24 -19 -47 -62 -140 -201 -538 -251 -722 -52 -189 -118
-460 -134 -548 -2 -15 -7 -35 -10 -45 -3 -9 -7 -33 -10 -52 -3 -19 -8 -46 -11
-60 -3 -14 -10 -54 -15 -90 -6 -36 -13 -75 -15 -86 -2 -12 -7 -48 -10 -80 -4
-33 -9 -67 -11 -78 -2 -10 -6 -44 -9 -75 -3 -31 -8 -65 -10 -76 -2 -11 -7 -56
-10 -100 -4 -44 -9 -98 -10 -120 -2 -22 -7 -96 -10 -165 -4 -69 -8 -134 -9
-145 -2 -14 -30 -30 -118 -65 -217 -88 -447 -224 -638 -377 -116 -93 -364
-341 -438 -438 -34 -44 -67 -86 -73 -93 -50 -59 -183 -298 -249 -446 -51 -115
-123 -358 -146 -491 -3 -16 -9 -55 -14 -85 -26 -150 -31 -484 -9 -604 4 -23
10 -63 13 -91 18 -150 77 -362 151 -540 40 -99 126 -268 138 -273 4 -2 7 -8 7
-13 0 -12 63 -110 127 -196 64 -88 63 -87 193 -237 58 -67 117 -136 132 -154
15 -17 31 -32 35 -32 5 0 27 17 49 38 21 21 84 78 138 127 55 50 107 97 116
105 9 8 56 51 105 95 49 44 112 101 140 127 27 26 60 55 73 66 30 26 183 164
252 228 61 56 146 133 164 149 6 6 36 33 66 60 206 187 243 220 250 223 5 2
14 -14 20 -35 13 -40 115 -304 130 -338 5 -11 37 -82 70 -158 56 -129 211
-446 258 -529 12 -21 38 -68 58 -105 55 -100 190 -323 267 -439 115 -175 263
-293 479 -384 140 -58 322 -108 463 -125 28 -4 61 -9 75 -12 45 -10 474 -12
540 -2 36 5 81 11 100 14 130 19 296 67 413 119 82 36 183 105 247 168 150
149 549 865 759 1363 40 94 76 179 81 190 11 26 73 189 91 237 7 21 15 38 19
38 3 0 28 -21 55 -47 64 -58 212 -193 290 -264 141 -127 253 -227 305 -275 30
-28 84 -77 120 -110 36 -32 108 -97 159 -144 52 -47 102 -92 113 -101 10 -9
57 -52 105 -95 47 -44 95 -87 107 -97 12 -10 39 -36 61 -56 29 -27 43 -35 50
-27 6 6 35 40 65 76 30 36 57 67 60 70 3 3 44 50 91 105 350 407 525 815 584
1355 6 57 7 332 1 385 -8 70 -20 170 -21 175 -1 3 -5 28 -10 55 -4 28 -9 57
-11 65 -129 595 -459 1088 -984 1471 -169 123 -391 244 -589 322 -79 30 -85
35 -87 62 -1 17 -5 91 -9 165 -4 74 -8 149 -10 165 -2 17 -7 64 -10 105 -4 41
-8 86 -10 100 -2 14 -6 45 -9 70 -39 309 -85 557 -158 850 -16 63 -30 122 -32
130 -38 155 -194 628 -245 745 -5 11 -38 90 -74 175 -81 191 -123 283 -194
425 -171 337 -340 620 -584 975 -101 147 -340 453 -488 625 -160 185 -249 280
-506 542 l-171 173 -224 -231z m255 -701 c19 -24 151 -172 172 -196 7 -7 29
-34 50 -60 21 -26 41 -49 44 -52 3 -3 43 -52 88 -110 46 -58 90 -114 99 -125
29 -34 214 -295 290 -407 l72 -107 -47 -21 c-100 -44 -309 -106 -418 -124 -16
-2 -46 -7 -65 -10 -111 -19 -182 -23 -335 -21 -191 3 -230 7 -399 41 -154 31
-416 118 -416 138 0 25 291 435 455 641 131 164 367 435 380 435 6 0 19 -10
30 -22z m-1103 -1646 c93 -42 305 -113 403 -137 88 -21 216 -45 265 -51 25 -3
54 -7 66 -9 111 -23 625 -23 696 0 7 2 36 6 65 9 28 3 57 8 65 10 7 3 29 7 49
10 111 16 359 92 522 160 48 20 91 36 95 36 9 0 92 -171 187 -385 91 -207 188
-482 295 -845 52 -174 134 -557 165 -768 9 -62 18 -121 20 -131 2 -10 6 -44
10 -77 3 -32 8 -75 10 -94 2 -19 7 -69 10 -110 4 -41 8 -93 10 -115 22 -246
22 -718 0 -985 -12 -144 -16 -188 -20 -225 -14 -118 -17 -142 -20 -165 -2 -14
-7 -45 -10 -69 -6 -47 -6 -52 -29 -186 -20 -111 -19 -106 -49 -245 -14 -63
-33 -149 -42 -191 l-16 -76 -80 -47 c-111 -66 -315 -167 -436 -215 -108 -43
-367 -126 -418 -134 -16 -3 -48 -9 -70 -15 -22 -6 -56 -14 -75 -17 -19 -3 -60
-10 -90 -15 -173 -29 -267 -35 -520 -35 -203 0 -319 6 -390 20 -14 3 -45 7
-69 10 -66 8 -236 43 -321 67 -291 80 -525 177 -775 321 l-100 58 -33 172
c-18 95 -35 183 -38 197 -9 38 -24 121 -30 155 -2 17 -9 50 -14 75 -5 25 -14
79 -20 120 -7 41 -13 86 -15 100 -2 14 -7 50 -11 80 -3 30 -7 66 -9 80 -2 14
-6 59 -10 100 -4 41 -8 91 -10 110 -23 228 -23 817 0 1030 2 19 6 67 10 105 3
39 8 81 10 95 2 14 6 52 10 85 3 33 10 85 15 115 5 30 12 73 15 95 35 241 116
593 197 860 22 72 99 304 113 340 5 11 32 81 60 155 95 245 261 600 281 600 7
0 41 -13 76 -28z m-1407 -3428 c2 -32 7 -94 10 -136 6 -84 22 -252 30 -308 12
-86 16 -117 20 -140 2 -14 6 -43 10 -65 11 -75 15 -100 25 -145 5 -25 11 -58
14 -75 2 -16 11 -61 19 -100 8 -38 18 -97 22 -129 3 -33 20 -111 37 -175 44
-167 43 -162 14 -206 -14 -21 -26 -43 -27 -49 0 -6 -28 -35 -62 -65 -34 -30
-87 -77 -118 -105 -135 -123 -238 -216 -283 -257 -28 -24 -57 -51 -66 -59 -9
-8 -41 -37 -72 -65 -46 -42 -192 -174 -232 -210 -106 -96 -184 -165 -189 -165
-20 0 -162 345 -181 440 -3 14 -12 57 -20 95 -48 223 -40 516 20 757 96 383
296 693 611 945 127 101 401 288 410 279 2 -1 5 -29 8 -62z m5073 -15 c394
-247 639 -496 796 -805 225 -448 251 -914 74 -1379 -35 -92 -93 -212 -116
-237 -8 -10 -12 -18 -8 -18 4 0 4 -5 1 -10 -8 -13 -31 5 -150 114 -49 45 -117
107 -150 137 -34 30 -103 92 -154 139 -52 47 -102 92 -111 100 -36 32 -164
147 -194 175 -65 59 -210 191 -243 219 -20 17 -30 32 -23 36 6 4 -4 23 -26 49
l-36 42 40 167 c43 174 60 255 86 407 9 50 18 101 21 115 7 43 45 332 51 395
3 33 7 76 9 95 2 19 7 76 11 125 3 50 8 106 9 125 2 19 4 43 4 53 1 9 4 17 7
17 3 0 49 -27 102 -61z m-3950 -2053 c60 -31 333 -118 485 -156 229 -56 368
-78 592 -96 172 -14 587 -8 680 10 11 2 47 7 80 11 32 4 68 9 80 11 11 2 60
11 110 20 49 8 92 17 95 19 3 2 22 6 42 9 92 14 417 115 531 165 27 12 53 21
58 21 9 0 -6 -41 -81 -220 -163 -388 -363 -777 -584 -1132 l-90 -144 -75 -32
c-121 -50 -189 -71 -291 -86 -91 -13 -276 -14 -350 -2 -19 3 -57 8 -84 11 -55
6 -63 8 -161 30 -157 36 -309 99 -351 146 -18 21 -73 101 -111 164 -7 11 -30
49 -51 85 -22 36 -52 88 -67 115 -15 28 -31 55 -35 60 -64 87 -317 618 -417
875 -25 63 -47 118 -50 123 -7 11 16 8 45 -7z"/>
<path d="M7349 11115 c-2 -2 -28 -6 -58 -10 -136 -17 -262 -59 -401 -133 -345
-183 -592 -536 -646 -922 -10 -73 -11 -279 -1 -356 24 -185 111 -398 230 -564
56 -78 223 -239 303 -292 147 -98 326 -171 467 -192 20 -3 54 -9 75 -12 83
-14 262 -10 362 9 444 84 814 404 954 827 44 133 59 227 62 380 4 275 -61 496
-212 721 -189 281 -461 460 -806 530 -50 10 -322 22 -329 14z m226 -638 c124
-29 220 -77 297 -150 98 -93 145 -170 179 -292 86 -311 -84 -637 -387 -743
-77 -27 -114 -34 -199 -33 -102 0 -170 16 -260 60 -275 136 -403 424 -324 725
56 212 269 404 479 432 25 3 46 7 48 9 4 4 143 -3 167 -8z"/>
<path d="M5700 3503 l0 -683 313 0 312 0 0 683 0 683 -312 1 -313 0 0 -684z"/>
<path d="M8609 4181 c-3 -20 -4 -1338 -1 -1348 3 -10 75 -13 313 -13 l309 0 0
683 0 683 -310 1 c-170 0 -310 -3 -311 -6z"/>
<path d="M7161 3740 c-5 -3 -8 -377 -8 -833 l0 -827 311 2 311 3 0 830 0 830
-303 0 c-167 0 -307 -2 -311 -5z"/>
<path d="M1257 2844 c-1 -1 -31 -4 -67 -7 -36 -4 -78 -9 -95 -12 -16 -3 -43
-8 -60 -11 -36 -6 -189 -52 -225 -67 -14 -6 -27 -11 -30 -11 -20 -5 -198 -101
-241 -131 -197 -137 -331 -282 -453 -487 l-45 -78 281 -141 c254 -127 283
-140 293 -124 88 150 208 269 345 342 221 119 508 127 735 22 117 -54 264
-175 320 -264 11 -16 22 -32 25 -35 24 -22 110 -228 110 -263 0 -6 -28 -39
-61 -72 -263 -257 -419 -575 -473 -965 -4 -33 -9 -128 -7 -160 1 -13 42 -15
306 -15 167 1 307 3 310 6 3 3 7 34 10 69 28 363 279 683 620 794 108 35 122
37 257 43 146 7 272 -19 423 -86 57 -26 95 -41 143 -60 l53 -21 59 126 c33 69
60 128 60 131 0 21 106 161 167 220 253 247 616 315 928 173 221 -100 389
-295 457 -530 22 -79 31 -146 42 -320 21 -317 15 -293 64 -275 280 102 340
123 377 129 231 42 346 29 508 -56 91 -48 212 -173 259 -268 51 -103 68 -161
75 -255 3 -44 7 -81 8 -83 3 -3 525 -5 606 -2 15 0 16 12 13 88 -15 380 -177
711 -469 959 -126 107 -298 198 -457 242 -107 30 -227 48 -332 50 -49 1 -93 4
-97 7 -4 2 -15 28 -25 57 -37 116 -138 297 -233 417 -55 70 -190 200 -261 253
-36 26 -69 51 -75 55 -81 62 -293 156 -434 192 -195 48 -448 59 -621 25 -14
-3 -35 -7 -47 -9 -170 -34 -360 -118 -521 -229 -80 -55 -233 -199 -297 -279
-33 -42 -41 -47 -69 -43 -17 2 -56 6 -86 9 -30 3 -84 9 -120 12 -129 14 -245
5 -371 -26 -41 -11 -82 -22 -91 -25 -12 -5 -22 10 -42 62 -105 264 -306 515
-538 671 -109 73 -227 133 -343 174 -55 20 -103 36 -108 36 -4 0 -20 3 -35 6
-15 4 -38 9 -52 12 -69 15 -169 25 -264 27 -59 2 -108 2 -109 1z"/>
<path d="M10979 2406 c-2 -2 -51 -6 -109 -9 -284 -16 -597 -124 -840 -291 -41
-28 -77 -53 -80 -56 -3 -3 -30 -25 -60 -50 -179 -146 -338 -353 -451 -586 -32
-66 -64 -121 -71 -121 -81 -3 -269 -51 -390 -98 -306 -121 -567 -318 -759
-571 -96 -127 -229 -368 -212 -385 7 -7 90 -41 452 -188 l115 -47 36 72 c61
117 109 184 205 280 140 141 285 229 470 283 107 31 125 33 355 38 207 4 249
7 237 19 -3 3 1 31 9 63 7 32 21 102 30 157 51 305 197 548 436 725 133 98
305 171 468 197 57 9 260 9 321 0 454 -67 819 -428 904 -893 14 -79 15 -366 1
-425 -3 -14 -9 -41 -12 -60 -4 -19 -11 -43 -16 -53 -5 -10 -8 -20 -6 -23 2 -2
101 -37 219 -78 118 -40 247 -85 288 -100 41 -14 78 -26 81 -26 15 0 63 187
76 295 10 78 10 302 1 383 -7 60 -6 64 29 119 108 169 284 293 488 345 94 24
265 28 361 8 296 -60 531 -264 630 -547 25 -72 30 -95 40 -172 3 -25 7 -47 10
-49 5 -5 70 -4 190 3 58 3 319 17 385 20 50 2 49 -2 37 105 -64 547 -448 1026
-972 1208 -251 87 -531 101 -795 40 -108 -25 -100 -23 -120 -31 -8 -3 -41 -15
-72 -26 -141 -50 -307 -146 -416 -238 -58 -50 -59 -50 -94 17 -16 30 -17 32
-110 145 -287 348 -757 583 -1192 594 -44 1 -83 4 -87 6 -3 3 -8 3 -10 1z"/>
</g>
</svg>
