<svg height="796" viewBox="0 0 930 796" width="930" xmlns="http://www.w3.org/2000/svg" xmlns:xlink="http://www.w3.org/1999/xlink"><linearGradient id="a" gradientUnits="userSpaceOnUse" x1="476.5" x2="476.5" y1="796" y2="356"><stop offset="0" stop-color="#808080" stop-opacity=".25"/><stop offset=".54" stop-color="#808080" stop-opacity=".12"/><stop offset="1" stop-color="#808080" stop-opacity=".1"/></linearGradient><linearGradient id="b" gradientUnits="userSpaceOnUse" x1="233" x2="233" y1="468" y2="390"><stop offset="0" stop-color="#b3b3b3" stop-opacity=".25"/><stop offset=".54" stop-color="#b3b3b3" stop-opacity=".1"/><stop offset="1" stop-color="#b3b3b3" stop-opacity=".05"/></linearGradient><path d="m827 414s28-104-28-211" style="fill:none;stroke:#e0e0e0;stroke-linecap:round;stroke-linejoin:round;stroke-width:10;stroke-dasharray:0 23" transform="translate(-135 -52)"/><path d="m443.1 380.14c9.88-40.36 12.83-124.5-117.66-160.22" style="fill:none;stroke:#e0e0e0;stroke-linecap:round;stroke-linejoin:round;stroke-width:10;stroke-dasharray:0 23.61" transform="translate(-135 -52)"/><path d="m71 356h811v440h-811z" fill="url(#a)"/><path d="m78 362h798v422.5h-798z" fill="#fff"/><circle cx="233" cy="429" fill="url(#b)" r="39"/><circle cx="233" cy="429" fill="#034efd" r="35"/><path d="m313 416h197v20h-197z" fill="#bdbdbd"/><path d="m232.5 545.5h492v20h-492z" fill="#e0e0e0"/><path d="m232.5 501.5h492v20h-492z" fill="#e0e0e0"/><path d="m232.5 589.5h492v20h-492z" fill="#e0e0e0"/><path d="m232.5 633.5h492v20h-492z" fill="#e0e0e0"/><path d="m232.5 677.5h492v20h-492z" fill="#e0e0e0"/><path d="m232.5 721.5h492v20h-492z" fill="#e0e0e0"/><path d="m290.59 384.75c.76-21.62-1.88-53.94-20.78-75.41" style="fill:none;stroke:#bdbdbd;stroke-linecap:round;stroke-linejoin:round;stroke-width:10;stroke-dasharray:0 22.87" transform="translate(-135 -52)"/><path d="m742.59 393.75c.76-21.62-1.88-53.94-20.78-75.41" style="fill:none;stroke:#e0e0e0;stroke-linecap:round;stroke-linejoin:round;stroke-width:10;stroke-dasharray:0 22.87" transform="translate(-135 -52)"/><path d="m930.41 384.75c-.76-21.62 1.88-53.94 20.78-75.41" style="fill:none;stroke:#bdbdbd;stroke-linecap:round;stroke-linejoin:round;stroke-width:10;stroke-dasharray:0 22.87" transform="translate(-135 -52)"/><g fill="#034efd"><path d="m0 114.78h111v60.43h-111z" opacity=".7"/><path d="m608 73.78h111v60.43h-111z" opacity=".7"/><path d="m513 181.78h111v60.43h-111z" opacity=".7"/><path d="m83 127.58h180.78v98.41h-180.78z"/><path d="m749.22 132.58h180.78v98.41h-180.78z"/><path d="m339.71 0h180.78v98.41h-180.78z"/></g><path d="m557.82 384.21c6.13-21.36 10.12-55.49-9.32-90.72-24-43.51-2.42-85.9 9.85-104.36" style="fill:none;stroke:#bdbdbd;stroke-linecap:round;stroke-linejoin:round;stroke-width:10;stroke-dasharray:0 24.01" transform="translate(-135 -52)"/></svg>