<svg width="80" height="80" xmlns="http://www.w3.org/2000/svg" fill="#f2efdf"><path d="M79.9 43.1c0-.4.1-.8.1-1.2v-3.8c0-.4-.1-.8-.1-1.2v-.6C78 16 60.8 0 40 0 19.8 0 3 15.1.4 34.6v.1c-.1.5-.1 1-.2 1.6 0 .2 0 .5-.1.7 0 .4-.1.7-.1 1.1v3.8c0 .4 0 .7.1 1.1 0 .2 0 .5.1.7 0 .5.1 1 .2 1.5v.2C3 64.9 19.8 80 40 80c20.8 0 38-16 39.8-36.3 0-.2.1-.4.1-.6zm-7.3 13.2c-.1.3-.3.6-.4.9-.1.2-.3.5-.4.7-.2.3-.3.6-.5.8-.1.2-.3.4-.4.7-.2.3-.3.5-.5.8-.1.2-.3.4-.4.6-.2.3-.4.5-.6.8-.2.2-.3.4-.5.6-.2.3-.4.5-.6.8-.2.2-.3.4-.5.6-.2.2-.4.5-.6.7-.2.2-.3.4-.5.6-.2.2-.4.5-.7.7l-.5.5c-.2.2-.5.4-.7.7-.2.2-.4.3-.6.5-.2.2-.5.4-.7.6-.2.2-.4.3-.6.5-.3.2-.5.4-.8.6-.2.2-.4.3-.6.5-.3.2-.5.4-.8.6-.2.1-.4.3-.6.4-.3.2-.6.4-.8.5-.2.1-.4.3-.6.4-.3.2-.6.3-.9.5-.2.1-.4.2-.7.4-.3.2-.6.3-.9.5-.2.1-.4.2-.7.3-.3.1-.6.3-.9.4-.2.1-.4.2-.7.3-.3.1-.6.3-.9.4-.2.1-.5.2-.7.3-.1 0-.1 0-.2.1 4.4-4.4 7.9-11.1 9.9-19.1h11.1c-.1.1-.1.2-.2.4 0-.1-.2.2-.3.4zM3.8 44.6v-.3c0-.4-.1-.7-.1-1.1 0-.3 0-.5-.1-.8v-5c0-.3 0-.5.1-.8 0-.4.1-.8.1-1.1v-.2c.3-2.4.9-4.8 1.7-7.2h11.7c-.7 3.7-1 7.6-1 11.7s.4 8 1 11.7H5.5c-.8-2.1-1.4-4.5-1.7-6.9zM19.6 40c0-4.1.4-8 1.1-11.7h17.5v23.4H20.7C20 48 19.6 44.1 19.6 40zM53.1 5.9c.3.1.6.2.9.4.2.1.5.2.7.3.3.1.6.3.9.4.2.1.5.2.7.3.3.1.6.3.9.4.2.1.4.2.7.4.3.2.6.3.8.5.2.1.4.3.7.4.3.2.5.3.8.5.2.1.4.3.6.4.3.2.5.4.8.6.2.2.4.3.6.5.3.2.5.4.8.6.2.2.4.3.6.5.2.2.5.4.7.6.2.2.4.3.6.5.2.2.5.4.7.7.2.2.4.4.6.5.2.2.4.5.7.7.2.2.4.4.5.6.2.2.4.5.6.7.2.2.3.4.5.6.2.2.4.5.6.7.2.2.3.4.5.6.2.3.4.5.5.8.1.2.3.4.4.6.2.3.3.5.5.8.1.2.3.4.4.7.2.3.3.5.5.8.1.2.3.5.4.7.1.3.3.6.4.8.1.2.2.5.4.7.1.1.1.2.2.4H62.1c-2-8-5.5-14.7-9.9-19.1.1 0 .1 0 .2.1.2.2.4.3.7.3zM60.4 40c0 4.1-.4 8-1.1 11.7H41.8V28.3h17.5c.7 3.7 1.1 7.6 1.1 11.7zm-1.9 15.2c-3 11.6-9.3 20-16.7 21.1V55.2h16.7zM41.8 24.8V3.7c7.4 1.1 13.7 9.5 16.7 21.1H41.8zM38.2 3.7v21.1H21.5c3-11.7 9.3-20 16.7-21.1zm0 51.5v21.1c-7.4-1.1-13.7-9.5-16.7-21.1h16.7zm38.2-13.5c0 .3 0 .5-.1.8 0 .2 0 .5-.1.7 0 .4-.1.8-.1 1.2v.1c-.3 2.4-.9 4.9-1.7 7.2H62.8c.7-3.7 1-7.6 1-11.7s-.4-8-1-11.7h11.7c.8 2.4 1.4 4.8 1.7 7.2v.1c.1.4.1.8.1 1.2 0 .2 0 .5.1.7 0 .3 0 .5.1.8V40c0 .6 0 1.1-.1 1.7zM27.8 5.6c-4.4 4.4-7.9 11.1-9.9 19.1h-11C11 15.9 18.5 8.9 27.8 5.6zM6.9 55.2H18c2 8 5.5 14.7 9.9 19.1-9.4-3.2-16.9-10.2-21-19.1z"/></svg>