<svg data-name="Layer 1" xmlns="http://www.w3.org/2000/svg" xmlns:xlink="http://www.w3.org/1999/xlink" width="873.74" height="509.56"><defs><linearGradient id="a" x1="367.4" y1="509.56" x2="367.4" gradientUnits="userSpaceOnUse"><stop offset="0" stop-color="gray" stop-opacity=".25"/><stop offset=".54" stop-color="gray" stop-opacity=".12"/><stop offset="1" stop-color="gray" stop-opacity=".1"/></linearGradient><linearGradient id="b" x1="367.14" y1="369.23" x2="367.14" y2="343.1" xlink:href="#a"/><linearGradient id="c" x1="725.74" y1="400.02" x2="725.74" y2="150.02" xlink:href="#a"/><linearGradient id="d" x1="832.87" y1="462.75" x2="946.87" y2="462.75" xlink:href="#a"/><linearGradient id="e" x1="833.74" y1="257.02" x2="833.74" y2="177.02" xlink:href="#a"/></defs><path fill="url(#a)" opacity=".5" d="M0 0L0 25.71 0 509.56 734.81 509.56 734.81 25.71 734.81 0 0 0z"/><path fill="#fff" d="M10.9 31.71H727.02V500.5H10.9z"/><path fill="#f5f5f5" d="M10.9 9.41H727.02V43.900000000000006H10.9z"/><circle cx="38.15" cy="26.13" r="8.36" fill="#ff5252"/><circle cx="61.15" cy="26.13" r="8.36" fill="#ff0"/><circle cx="84.14" cy="26.13" r="8.36" fill="#69f0ae"/><path fill="#034efd" opacity=".5" d="M301.81 157.05H433.51V171.16000000000003H301.81z"/><path fill="#e0e0e0" d="M206.7 217.67H350.94V231.77999999999997H206.7z"/><path transform="rotate(-180 538.075 322.34)" fill="#3ad29f" d="M547.52 412.89H691.76V427H547.52z"/><path fill="#e0e0e0" d="M206.17 247.98H528.1V262.09H206.17z"/><path fill="#e0e0e0" d="M206.17 278.3H528.1V292.41H206.17z"/><path fill="url(#b)" d="M300.25 343.1H434.03999999999996V369.23H300.25z"/><path fill="#034efd" d="M301.29 345.48H432.99V366.86H301.29z"/><circle cx="725.74" cy="275.02" r="125" fill="url(#c)" opacity=".5"/><circle cx="725.74" cy="275.02" r="117" fill="#f5f5f5"/><path d="M905.18 442.17l-2.25-.8-.12.2h-.13v-6.1a14.06 14.06 0 0 0-.17-2.2 23.33 23.33 0 0 0 8-10.56 27.51 27.51 0 1 0-43.57 0 23.33 23.33 0 0 0 8 10.56 14.06 14.06 0 0 0-.17 2.2v6.68a57 57 0 0 0-41.86 55v50h114v-50a57 57 0 0 0-41.73-54.98z" transform="translate(-163.13 -195.22)" fill="url(#d)" opacity=".5"/><path d="M726.74 245.71a54.88 54.88 0 0 1 54.88 54.88v48.16H671.86v-48.16a54.88 54.88 0 0 1 54.88-54.88z" fill="#034efd"/><rect x="712.18" y="227.8" width="26.88" height="33.6" rx="13.44" ry="13.44" fill="#fda57d"/><path opacity=".05" d="M702.86 251.66L711.87 270.98 720.83 262.02 711.87 248.3 702.86 251.66z"/><path d="M703.17 250.72l9 19.32 9-9-9-13.72-4.12 1.26a10.33 10.33 0 0 0-1.18.44z" fill="#fff"/><path opacity=".05" d="M748.42 250.72L739.37 270.98 730.41 262.02 739.62 247.57 748.42 250.72z"/><path d="M748.11 249.78l-9 20.27-9-9 9.21-14.45 1.69.48a44.93 44.93 0 0 1 5.35 1.91z" fill="#fff"/><path fill="#fda57d" d="M720.47 260.37L725.48 267.68 730.77 260.37 720.47 260.37z"/><path d="M692.49 286.85s-5.34 53.1-1.89 56.56m67.87-56.56s5.34 53.1 1.89 56.56" opacity=".1"/><path d="M725.62 244.1a22.29 22.29 0 0 0 13.25-4.32 13.44 13.44 0 0 0-13.27-11.32 13.44 13.44 0 0 0-13.25 11.32 22.29 22.29 0 0 0 13.27 4.32z" opacity=".05"/><circle cx="725.62" cy="212.78" r="26.48"/><circle cx="725.62" cy="221.08" r="22.4" fill="#fda57d"/><path d="M707.57 198.87l5.66 6.91s24.82 2.2 27.65-3.46-16.34-9.74-16.34-9.74z" opacity=".05"/><path d="M707.57 198.24l5.66 6.91s24.82 2.2 27.65-3.46-16.34-9.74-16.34-9.74z"/><ellipse cx="703.17" cy="219.61" rx="1.57" ry="2.83" fill="#fda57d"/><ellipse cx="748.1" cy="219.61" rx="1.57" ry="2.83" fill="#fda57d"/><path fill="url(#e)" opacity=".5" d="M873.74 208.09L842.67 208.09 842.67 177.03 824.81 177.03 824.81 208.09 793.74 208.09 793.74 225.96 824.81 225.96 824.81 257.02 842.67 257.02 842.67 225.96 873.74 225.96 873.74 208.09z"/><path fill="#3ad29f" d="M826.15 183.02H841.3299999999999V251.02H826.15z"/><path transform="rotate(90 1012.915 233.075)" fill="#3ad29f" d="M989.28 378.25H1004.4599999999999V446.25H989.28z"/></svg>