<svg data-name="Layer 1" xmlns="http://www.w3.org/2000/svg" xmlns:xlink="http://www.w3.org/1999/xlink" width="882.5" height="686.51"><defs><linearGradient id="c" x1="-121.09" y1="464.11" x2="-121.09" y2="77.38" gradientTransform="translate(704.36 124.53)" gradientUnits="userSpaceOnUse"><stop offset="0" stop-color="gray" stop-opacity=".25"/><stop offset=".54" stop-color="gray" stop-opacity=".12"/><stop offset="1" stop-color="gray" stop-opacity=".1"/></linearGradient><linearGradient id="a" x1="-402.3" y1="269.44" x2="-402.3" y2="170.67" gradientTransform="rotate(-15.27 695.59 -2294.214)" gradientUnits="userSpaceOnUse"><stop offset="0" stop-opacity=".12"/><stop offset=".55" stop-opacity=".09"/><stop offset="1" stop-opacity=".02"/></linearGradient><linearGradient id="d" x1="-402.3" y1="252.79" x2="-402.3" y2="231.21" gradientTransform="translate(706.72 199.61)" xlink:href="#a"/><linearGradient id="e" x1="-402.26" y1="234.11" x2="-402.26" y2="194.99" gradientTransform="translate(699.49 200.57)" xlink:href="#a"/><linearGradient id="f" x1="-402.3" y1="272.44" x2="-402.3" y2="239.1" xlink:href="#a"/><linearGradient id="g" x1="-402.26" y1="216.85" x2="-402.26" y2="180.15" xlink:href="#a"/><linearGradient id="b" x1="-261.96" y1="207" x2="-229.82" y2="207" gradientTransform="translate(691.98 159.65)" gradientUnits="userSpaceOnUse"><stop offset="0" stop-opacity=".09"/><stop offset=".55" stop-opacity=".07"/><stop offset="1" stop-opacity=".02"/></linearGradient><linearGradient id="h" x1="-91.63" y1="207" x2="-59.49" y2="207" gradientTransform="translate(685.97 114.79)" xlink:href="#b"/><linearGradient id="i" x1="84.06" y1="207" x2="116.2" y2="207" gradientTransform="translate(679.76 68.52)" xlink:href="#b"/><linearGradient id="j" x1="-261.96" y1="370.91" x2="-229.82" y2="370.91" gradientTransform="translate(735.15 153.86)" xlink:href="#b"/><linearGradient id="k" x1="-91.63" y1="370.91" x2="-59.49" y2="370.91" gradientTransform="translate(729.13 109)" xlink:href="#b"/><linearGradient id="l" x1="84.06" y1="370.91" x2="116.2" y2="370.91" gradientTransform="translate(722.93 62.73)" xlink:href="#b"/><linearGradient id="m" x1="495.23" y1="686.51" x2="495.23" y2="299.78" xlink:href="#c"/><linearGradient id="n" x1="372.77" y1="598.59" x2="372.77" y2="499.81" xlink:href="#a"/><linearGradient id="o" x1="214.02" y1="475.19" x2="214.02" y2="453.62" xlink:href="#a"/><linearGradient id="p" x1="214.05" y1="456.51" x2="214.05" y2="417.4" xlink:href="#a"/><linearGradient id="q" x1="372.77" y1="601.58" x2="372.77" y2="568.25" xlink:href="#a"/><linearGradient id="r" x1="372.81" y1="545.99" x2="372.81" y2="509.29" xlink:href="#a"/></defs><path transform="rotate(-15.27 105.141 929.885)" fill="#f5f5f5" d="M200.21 202.4H965.11V579.89H200.21z"/><path transform="rotate(-15.27 105.762 934.031)" fill="url(#c)" d="M196.01 201.91H970.55V588.64H196.01z"/><path transform="rotate(-15.27 110.132 948.172)" fill="#fff" d="M205.2 239.82H970.0999999999999V578.97H205.2z"/><circle cx="186.41" cy="322.7" r="9.64" transform="matrix(.96 -.26 .26 .96 -237.16 -46.26)" fill="#ff5252"/><circle cx="214.31" cy="315.08" r="9.64" transform="rotate(-15.27 -263.224 853.85)" fill="#ff0"/><circle cx="242.22" cy="307.46" r="9.64" transform="rotate(-15.27 -235.321 846.238)" fill="#69f0ae"/><path transform="rotate(-15.27 -161.737 1022.144)" fill="#034efd" d="M215.08 313.58H416.48V653.1800000000001H215.08z"/><path d="M350.71 407.77c-7.4-27.11-36.54-42.77-65.07-35S240 408.88 247.36 436c5.81 21.28 25 35.5 46.79 36.87l-3.45-12.65c-2.5-9.14 3.34-18.77 13-21.4 9.62-2.63 19.54 2.7 22 11.85l3.45 12.65c18.06-12.27 27.37-34.32 21.56-55.55z" transform="translate(-158.75 -106.74)" fill="url(#a)"/><rect x="301.2" y="430.82" width="6.44" height="21.58" rx="2.86" ry="2.86" transform="rotate(-15.27 -173.11 980.371)" fill="url(#d)"/><ellipse cx="297.22" cy="415.12" rx="20.59" ry="19.56" transform="rotate(-15.27 -180.306 953.891)" fill="url(#e)"/><path d="M303.66 438.81c-9.62 2.63-15.45 12.26-13 21.4l3.45 12.65a56.43 56.43 0 0 0 35-9.55l-3.45-12.65c-2.46-9.14-12.38-14.47-22-11.85z" transform="translate(-158.75 -106.74)" fill="url(#f)"/><path d="M276.91 419.54a18.18 18.18 0 0 1-4.71-8.91 12.92 12.92 0 0 1 2.05-9.81c2.25-3.13 6-5 9.66-6.35s7.6-2.2 11.14-3.91a24.69 24.69 0 0 0 12.5-13.91 29.89 29.89 0 0 1 2.18 8.33 10.56 10.56 0 0 1-2.65 8.1c2.65-2.15 3.18 1 3 3.09 2 1.31 5.67.6 6.46 2.77a13.8 13.8 0 0 1 1 6.76c-.35 2.29 1.61 5.64-.68 6.43" transform="translate(-158.75 -106.74)" fill="url(#g)"/><path d="M187.36 294.51a50.89 50.89 0 1 0-53.11 64.15l-3.45-12.65a17.28 17.28 0 0 1 12.08-21.16 17.28 17.28 0 0 1 21.16 12.08l3.45 12.65a50.9 50.9 0 0 0 19.87-55.07z" fill="#034efd"/><rect x="299.35" y="423.6" width="6.12" height="21.58" rx="2.86" ry="2.86" transform="rotate(-15.27 -175.104 973.156)" fill="#fff" stroke="#fff" stroke-miterlimit="10"/><circle cx="295.21" cy="407.9" r="19.56" transform="rotate(-15.27 -182.3 946.675)" fill="#fff" stroke="#fff" stroke-miterlimit="10"/><path d="M142.89 324.85a17.28 17.28 0 0 0-12.08 21.16l3.44 12.65a51.08 51.08 0 0 0 33.24-9.08l-3.45-12.65a17.28 17.28 0 0 0-21.15-12.08zm-25.75-19.59a19 19 0 0 1-4.6-8.94 13.16 13.16 0 0 1 1.83-9.75c2.11-3.09 5.61-4.94 9.13-6.21s7.22-2.09 10.57-3.76a23.39 23.39 0 0 0 11.74-13.71 31.45 31.45 0 0 1 2.19 8.33 10.61 10.61 0 0 1-2.43 8c2.5-2.11 3 1.08 2.93 3.12 1.89 1.33 5.42.67 6.2 2.84a14.47 14.47 0 0 1 1.07 6.75c-.31 2.28 1.61 5.64-.57 6.4" fill="#fff" stroke="#fff" stroke-miterlimit="10"/><path d="M146.49 278.57s13.48-2.45 9.44 19.65" fill="#fff"/><path transform="rotate(-15.27 -139.97 1103.925)" opacity=".1" d="M236.86 480.53H438.26V649.79H236.86z"/><path transform="rotate(-15.27 -163.784 1065.459)" fill="#fff" d="M264.45 521.88H363.01V531.52H264.45z"/><path transform="rotate(-15.27 -146.496 1084.065)" fill="#fff" d="M269.96 540.48H392.09V550.12H269.96z"/><path transform="rotate(-15.27 8.992 858.295)" fill="#f5f5f5" d="M413.68 283.64H559.37V355.41999999999996H413.68z"/><path transform="rotate(-15.27 27.328 925.453)" fill="#e0e0e0" d="M432.02 350.81H577.71V422.59000000000003H432.02z"/><path transform="rotate(-15.27 342.813 767.15)" fill="#f5f5f5" d="M747.49 192.51H893.1800000000001V264.28999999999996H747.49z"/><path transform="rotate(-15.27 361.144 834.346)" fill="#e0e0e0" d="M765.83 259.68H911.52V331.46000000000004H765.83z"/><path transform="rotate(-15.27 175.39 812.863)" fill="#f5f5f5" d="M580.07 238.21H725.76V309.99H580.07z"/><path transform="rotate(-15.27 193.726 880.021)" fill="#e0e0e0" d="M598.4 305.39H744.0899999999999V377.16999999999996H598.4z"/><path transform="rotate(-15.2 53.6 1028.591)" fill="#e0e0e0" d="M456.56 440.72H602.25V512.5H456.56z"/><path transform="rotate(-15.27 70.21 1082.549)" fill="#bdbdbd" d="M474.9 507.9H620.5899999999999V579.68H474.9z"/><path transform="rotate(-15.27 385.696 924.246)" fill="#f5f5f5" d="M790.37 349.59H936.06V421.37H790.37z"/><path transform="rotate(-15.27 404.031 991.404)" fill="#bdbdbd" d="M808.71 416.77H954.4000000000001V488.54999999999995H808.71z"/><path transform="rotate(-15.27 218.273 969.959)" fill="#f5f5f5" d="M622.95 395.3H768.6400000000001V467.08000000000004H622.95z"/><path transform="rotate(-15.27 236.608 1037.117)" fill="#bdbdbd" d="M641.29 462.47H786.98V534.25H641.29z"/><ellipse cx="446.09" cy="366.65" rx="16.07" ry="15" transform="rotate(-15.27 -31.423 905.428)" fill="url(#b)"/><circle cx="445.81" cy="365.62" r="13.93" transform="matrix(.96 -.26 .26 .96 -239.31 23.58)" fill="#034efd"/><ellipse cx="610.41" cy="321.79" rx="16.07" ry="15" transform="rotate(-15.27 132.889 860.551)" fill="url(#h)"/><circle cx="610.13" cy="320.76" r="13.93" transform="rotate(-15.27 132.608 859.526)" fill="#034efd"/><ellipse cx="779.9" cy="275.52" rx="16.07" ry="15" transform="rotate(-15.27 302.361 814.278)" fill="url(#i)"/><circle cx="779.62" cy="274.49" r="13.93" transform="rotate(-15.27 302.081 813.253)" fill="#034efd"/><ellipse cx="489.26" cy="524.77" rx="16.07" ry="15" transform="rotate(-15.27 11.74 1063.548)" fill="url(#j)"/><circle cx="488.97" cy="523.74" r="13.93" transform="rotate(-15.27 11.465 1062.486)" fill="#2196f3"/><ellipse cx="653.58" cy="479.91" rx="16.07" ry="15" transform="rotate(-15.27 176.051 1018.671)" fill="url(#k)"/><circle cx="653.29" cy="478.88" r="13.93" transform="rotate(-15.27 175.771 1017.647)" fill="#2196f3"/><ellipse cx="823.06" cy="433.64" rx="16.07" ry="15" transform="rotate(-15.27 345.524 972.398)" fill="url(#l)"/><circle cx="822.78" cy="432.61" r="13.93" transform="rotate(-15.27 345.244 971.373)" fill="#2196f3"/><path fill="#f5f5f5" d="M113.28 300.25H878.18V677.74H113.28z"/><path fill="url(#m)" d="M107.96 299.78H882.5V686.51H107.96z"/><path fill="#fff" d="M113.28 338.35H878.18V677.5H113.28z"/><circle cx="131.49" cy="318.61" r="9.64" fill="#ff5252"/><circle cx="160.41" cy="318.61" r="9.64" fill="#ff0"/><circle cx="189.34" cy="318.61" r="9.64" fill="#69f0ae"/><path fill="#034efd" d="M113.28 337.9H314.68V677.5H113.28z"/><path d="M426.33 550.7c0-28.1-24-50.89-53.56-50.89s-53.57 22.78-53.57 50.89c0 22.06 14.77 40.83 35.43 47.89v-13.11c0-9.48 8.16-17.23 18.14-17.23 10 0 18.14 7.75 18.14 17.23v13.11c20.65-7.06 35.42-25.84 35.42-47.89z" transform="translate(-158.75 -106.74)" fill="url(#n)"/><rect x="210.79" y="453.62" width="6.44" height="21.58" rx="2.86" ry="2.86" fill="url(#o)"/><ellipse cx="214.05" cy="436.96" rx="20.59" ry="19.56" fill="url(#p)"/><path d="M372.77 568.25c-10 0-18.14 7.75-18.14 17.23v13.11a56.43 56.43 0 0 0 36.27 0v-13.11c0-9.48-8.16-17.23-18.13-17.23z" transform="translate(-158.75 -106.74)" fill="url(#q)"/><path d="M352 542.61a18.18 18.18 0 0 1-2.2-9.84 12.92 12.92 0 0 1 4.56-8.92c3-2.43 7.07-3.29 11-3.59s7.91-.12 11.78-.84a24.69 24.69 0 0 0 15.72-10.13 29.89 29.89 0 0 1-.09 8.61 10.56 10.56 0 0 1-4.69 7.11c3.13-1.37 2.79 1.85 2.11 3.78 1.55 1.78 5.32 2.07 5.51 4.37a13.8 13.8 0 0 1-.79 6.8c-.95 2.12.07 5.86-2.35 6" transform="translate(-158.75 -106.74)" fill="url(#r)"/><path d="M264.86 436.46a50.89 50.89 0 1 0-68.12 47.89v-13.09a17.28 17.28 0 0 1 17.23-17.23 17.28 17.28 0 0 1 17.28 17.23v13.11a50.9 50.9 0 0 0 33.61-47.91z" fill="#034efd"/><rect x="210.92" y="446.12" width="6.12" height="21.58" rx="2.86" ry="2.86" fill="#fff" stroke="#fff" stroke-miterlimit="10"/><circle cx="214.01" cy="429.46" r="19.56" fill="#fff" stroke="#fff" stroke-miterlimit="10"/><path d="M213.98 454.01a17.28 17.28 0 0 0-17.23 17.25v13.11a51.08 51.08 0 0 0 34.46 0v-13.11a17.28 17.28 0 0 0-17.23-17.25zm-19.73-25.63a19 19 0 0 1-2.09-9.84 13.16 13.16 0 0 1 4.34-8.92c2.85-2.43 6.71-3.29 10.44-3.59s7.51-.12 11.19-.84a23.39 23.39 0 0 0 14.94-10.13 31.45 31.45 0 0 1-.08 8.61 10.61 10.61 0 0 1-4.46 7.11c3-1.37 2.65 1.85 2 3.78 1.47 1.78 5 2.07 5.23 4.37a14.47 14.47 0 0 1-.75 6.8c-.9 2.12.06 5.86-2.23 6" fill="#fff" stroke="#fff" stroke-miterlimit="10"/><path d="M229.64 410.26s13.65 1.19 3.93 21.45" fill="#fff"/><path opacity=".1" d="M112.74 507.7H314.14V676.96H112.74z"/><path fill="#fff" d="M151.31 544.12H249.87V553.76H151.31z"/><path fill="#bdbdbd" d="M390.2 395.21H488.76V404.84999999999997H390.2z"/><path fill="#e0e0e0" d="M390.2 453.06H742.65V462.7H390.2z"/><path fill="#e0e0e0" d="M390.2 510.91H742.65V520.5500000000001H390.2z"/><path fill="#64ffda" d="M390.2 568.76H488.76V578.4H390.2z"/><path fill="#f5f5f5" d="M516.61 568.76H615.1700000000001V578.4H516.61z"/><path fill="#64ffda" d="M644.1 568.76H742.6600000000001V578.4H644.1z"/><path fill="#fff" d="M151.31 566.62H273.44V576.26H151.31z"/></svg>