<svg data-name="Layer 1" xmlns="http://www.w3.org/2000/svg" xmlns:xlink="http://www.w3.org/1999/xlink" width="820.16" height="780.81"><defs><linearGradient id="a" x1="539.63" y1="734.6" x2="539.63" y2="151.19" gradientTransform="translate(-3.62 1.57)" gradientUnits="userSpaceOnUse"><stop offset="0" stop-color="gray" stop-opacity=".25"/><stop offset=".54" stop-color="gray" stop-opacity=".12"/><stop offset="1" stop-color="gray" stop-opacity=".1"/></linearGradient><linearGradient id="b" x1="540.17" y1="180.2" x2="540.17" y2="130.75" gradientTransform="translate(-63.92 7.85)" xlink:href="#a"/><linearGradient id="c" x1="540.17" y1="140.86" x2="540.17" y2="82.43" gradientTransform="rotate(-12.11 545.066 460.65)" xlink:href="#a"/><linearGradient id="d" x1="476.4" y1="710.53" x2="476.4" y2="127.12" xlink:href="#a"/><linearGradient id="e" x1="476.94" y1="156.13" x2="476.94" y2="106.68" xlink:href="#a"/><linearGradient id="f" x1="666.86" y1="176.39" x2="666.86" y2="117.95" xlink:href="#a"/></defs><path transform="rotate(-12.11 160.03 1309.797)" fill="#e0e0e0" d="M317.5 142.55H754.52V746.3700000000001H317.5z"/><path transform="rotate(-12.11 160.03 1309.797)" fill="url(#a)" opacity=".5" d="M324.89 152.76H747.14V736.17H324.89z"/><path transform="rotate(-12.11 159.585 1307.7)" fill="#fafafa" d="M329.81 157.1H741.31V727.62H329.81z"/><path transform="rotate(-12.11 100.28 1028.707)" fill="url(#b)" d="M374.18 138.6H578.3199999999999V188.05H374.18z"/><path d="M460.93 91.9c-15.41 3.31-25.16 18.78-21.77 34.55s18.62 25.89 34 22.58 25.16-18.78 21.77-34.55-18.59-25.89-34-22.58zm9.67 45.1a16.86 16.86 0 1 1 12.56-20 16.66 16.66 0 0 1-12.56 20z" transform="translate(-189.92 -59.59)" fill="url(#c)"/><path transform="rotate(-12.11 99.61 1025.585)" fill="#034efd" d="M375.66 136.55H575.5V183.82000000000002H375.66z"/><path d="M271.01 32.31a27.93 27.93 0 1 0 33.17 21.45 27.93 27.93 0 0 0-33.17-21.45zm9.24 43.1a16.12 16.12 0 1 1 12.38-19.14 16.12 16.12 0 0 1-12.38 19.14z" fill="#034efd"/><path fill="#e0e0e0" d="M257.89 116.91H694.91V720.73H257.89z"/><path fill="url(#d)" opacity=".5" d="M265.28 127.12H687.53V710.53H265.28z"/><path fill="#fff" d="M270.65 131.42H682.15V701.9399999999999H270.65z"/><path fill="url(#e)" d="M374.87 106.68H579.01V156.13H374.87z"/><path d="M666.86 118c-15.76 0-28.54 13.08-28.54 29.22s12.78 29.22 28.54 29.22 28.54-13.08 28.54-29.22S682.62 118 666.86 118zm0 46.08a16.86 16.86 0 1 1 16.46-16.86A16.66 16.66 0 0 1 666.86 164z" transform="translate(-189.92 -59.59)" fill="url(#f)"/><path fill="#034efd" d="M377.02 104.56H576.86V151.83H377.02z"/><path d="M476.94 58.41a27.93 27.93 0 1 0 27.93 27.93 27.93 27.93 0 0 0-27.93-27.93zm0 44.05a16.12 16.12 0 1 1 16.14-16.16 16.12 16.12 0 0 1-16.14 16.11z" fill="#034efd"/><g opacity=".5" fill="#47e6b1"><path d="M15.27 737.05H19.03V758.38H15.27z"/><path transform="rotate(90 141.91 682.56)" d="M205.19 796.65H208.95V817.98H205.19z"/></g><g opacity=".5" fill="#47e6b1"><path d="M451.49 0H455.25V21.33H451.49z"/><path transform="rotate(90 578.125 -54.495)" d="M641.4 59.59H645.16V80.92H641.4z"/></g><path d="M771.08 772.56a4.61 4.61 0 0 1-2.57-5.57 2.22 2.22 0 0 0 .1-.51 2.31 2.31 0 0 0-4.15-1.53 2.22 2.22 0 0 0-.26.45 4.61 4.61 0 0 1-5.57 2.57 2.22 2.22 0 0 0-.51-.1 2.31 2.31 0 0 0-1.53 4.15 2.22 2.22 0 0 0 .45.26 4.61 4.61 0 0 1 2.57 5.57 2.22 2.22 0 0 0-.1.51 2.31 2.31 0 0 0 4.15 1.53 2.22 2.22 0 0 0 .26-.45 4.61 4.61 0 0 1 5.57-2.57 2.22 2.22 0 0 0 .51.1 2.31 2.31 0 0 0 1.53-4.15 2.22 2.22 0 0 0-.45-.26z" fill="#4d8af0" opacity=".5"/><path d="M136.67 567.5a4.61 4.61 0 0 1-2.57-5.57 2.22 2.22 0 0 0 .1-.51 2.31 2.31 0 0 0-4.15-1.53 2.22 2.22 0 0 0-.26.45 4.61 4.61 0 0 1-5.57 2.57 2.22 2.22 0 0 0-.51-.1 2.31 2.31 0 0 0-1.53 4.15 2.22 2.22 0 0 0 .45.26 4.61 4.61 0 0 1 2.57 5.57 2.22 2.22 0 0 0-.1.51 2.31 2.31 0 0 0 4.15 1.53 2.22 2.22 0 0 0 .26-.45 4.61 4.61 0 0 1 5.57-2.57 2.22 2.22 0 0 0 .51.1 2.31 2.31 0 0 0 1.53-4.15 2.22 2.22 0 0 0-.45-.26zM665.08 68.18a4.61 4.61 0 0 1-2.57-5.57 2.22 2.22 0 0 0 .1-.51 2.31 2.31 0 0 0-4.15-1.53 2.22 2.22 0 0 0-.26.45 4.61 4.61 0 0 1-5.57 2.57 2.22 2.22 0 0 0-.51-.1 2.31 2.31 0 0 0-1.53 4.15 2.22 2.22 0 0 0 .45.26 4.61 4.61 0 0 1 2.57 5.57 2.22 2.22 0 0 0-.1.51 2.31 2.31 0 0 0 4.15 1.53 2.22 2.22 0 0 0 .26-.45 4.61 4.61 0 0 1 5.57-2.57 2.22 2.22 0 0 0 .51.1 2.31 2.31 0 0 0 1.53-4.15 2.22 2.22 0 0 0-.45-.26z" fill="#fdd835" opacity=".5"/><circle cx="812.64" cy="314.47" r="7.53" fill="#f55f44" opacity=".5"/><circle cx="230.73" cy="746.65" r="7.53" fill="#f55f44" opacity=".5"/><circle cx="735.31" cy="477.23" r="7.53" fill="#f55f44" opacity=".5"/><circle cx="87.14" cy="96.35" r="7.53" fill="#4d8af0" opacity=".5"/><circle cx="7.53" cy="301.76" r="7.53" fill="#47e6b1" opacity=".5"/></svg>